<?xml version="1.0" encoding="utf-8"?>
<!-- Generator: Adobe Illustrator 15.1.0, SVG Export Plug-In . SVG Version: 6.00 Build 0)  -->
<!DOCTYPE svg PUBLIC "-//W3C//DTD SVG 1.1//EN" "http://www.w3.org/Graphics/SVG/1.1/DTD/svg11.dtd">
<svg version="1.1" id="Ebene_1" xmlns="http://www.w3.org/2000/svg" xmlns:xlink="http://www.w3.org/1999/xlink" x="0px" y="0px"
	 width="662.87px" height="498.02px" viewBox="153.27 50.981 662.87 498.02" enable-background="new 153.27 50.981 662.87 498.02"
	 xml:space="preserve">
<desc>Created with Fabric.js 1.7.19</desc>
<path fill="#1D6B20" stroke="#FFFFFF" stroke-width="2" stroke-miterlimit="10" d="M466,350l-6.581-197.891
	c2.193-0.073,4.388-0.109,6.581-0.109V350z"/>
<path fill="none" stroke="#000000" stroke-miterlimit="10" stroke-opacity="0.3" d="M463.5,152.5l-1-20h8"/>
<path fill="#D89D3B" stroke="#FFFFFF" stroke-width="2" stroke-miterlimit="10" d="M466,350l-13.154-197.563
	c2.189-0.146,4.381-0.256,6.573-0.328L466,350z"/>
<path fill="none" stroke="#000000" stroke-miterlimit="10" stroke-opacity="0.3" d="M456.5,153.5l-1-41h8"/>
<path fill="#913167" stroke="#FFFFFF" stroke-width="2" stroke-miterlimit="10" d="M466,350l-19.714-197.017
	c2.184-0.218,4.37-0.4,6.56-0.546L466,350z"/>
<path fill="none" stroke="#000000" stroke-miterlimit="10" stroke-opacity="0.3" d="M450.5,153.5l-2-62h8"/>
<path fill="#B93E3D" stroke="#FFFFFF" stroke-width="2" stroke-miterlimit="10" d="M466,350l-26.252-196.252
	c2.175-0.291,4.354-0.546,6.538-0.765L466,350z"/>
<path fill="none" stroke="#000000" stroke-miterlimit="10" stroke-opacity="0.3" d="M443.5,154.5l-2-101h-8"/>
<path fill="#B9783F" stroke="#FFFFFF" stroke-width="2" stroke-miterlimit="10" d="M466,350l-32.76-195.271
	c2.164-0.362,4.333-0.689,6.508-0.98L466,350z"/>
<path fill="none" stroke="#000000" stroke-miterlimit="10" stroke-opacity="0.3" d="M437.5,155.5l-3-83h-8"/>
<path fill="#B7B83F" stroke="#FFFFFF" stroke-width="2" stroke-miterlimit="10" d="M466,350l-39.232-194.074
	c2.15-0.435,4.309-0.834,6.473-1.197L466,350z"/>
<path fill="none" stroke="#000000" stroke-miterlimit="10" stroke-opacity="0.3" d="M430.5,156.5l-4-64h-8"/>
<path fill="#448E4D" stroke="#FFFFFF" stroke-width="2" stroke-miterlimit="10" d="M466,350l-52.04-191.039
	c4.234-1.153,8.506-2.166,12.808-3.035L466,350z"/>
<path fill="none" stroke="#000000" stroke-miterlimit="10" stroke-opacity="0.3" d="M420.5,158.5l-4-46h-8"/>
<path fill="#2F4074" stroke="#FFFFFF" stroke-width="2" stroke-miterlimit="10" d="M466,350l-70.803-184.908
	c6.148-2.354,12.41-4.4,18.763-6.131L466,350z"/>
<path fill="none" stroke="#000000" stroke-miterlimit="10" stroke-opacity="0.3" d="M405.5,162.5l-7-30h-8"/>
<path fill="#CD82AD" stroke="#FFFFFF" stroke-width="2" stroke-miterlimit="10" d="M466,350l-94.693-173.888
	c7.71-4.199,15.691-7.881,23.891-11.021L466,350z"/>
<path fill="none" stroke="#000000" stroke-miterlimit="10" stroke-opacity="0.3" d="M383.5,171.5l-8-19h-8"/>
<path fill="#CC4748" stroke="#FFFFFF" stroke-width="2" stroke-miterlimit="10" d="M466,350L333.758,202.637
	c11.443-10.27,24.045-19.171,37.549-26.524L466,350z"/>
<path fill="none" stroke="#000000" stroke-miterlimit="10" stroke-opacity="0.3" d="M352.5,189.5l-12-17h-8"/>
<path fill="#84B761" stroke="#FFFFFF" stroke-width="2" stroke-miterlimit="10" d="M466,350L296.196,248.163
	c10.176-16.967,22.837-32.313,37.562-45.526L466,350z"/>
<path fill="none" stroke="#000000" stroke-miterlimit="10" stroke-opacity="0.3" d="M314.5,224.5l-16-13h-8"/>
<path fill="#FDD400" stroke="#FFFFFF" stroke-width="2" stroke-miterlimit="10" d="M466,350l-29.51,195.788
	C328.359,529.49,253.914,428.62,270.212,320.49c3.854-25.574,12.683-50.146,25.984-72.326L466,350z"/>
<path fill="none" stroke="#000000" stroke-miterlimit="10" stroke-opacity="0.3" d="M287.5,434.5l-18,9h-8"/>
<path fill="#67B7DC" stroke="#FFFFFF" stroke-width="2" stroke-miterlimit="10" d="M466,350V152c109.353,0,198,88.647,198,198
	c0,109.352-88.647,198-198,198c-9.878,0-19.742-0.74-29.51-2.212L466,350z"/>
<path fill="none" stroke="#000000" stroke-miterlimit="10" stroke-opacity="0.3" d="M663.5,365.5l20,1h8"/>
<text transform="matrix(1 0 0 1 695.4998 373.4797)" font-family="'Verdana'" font-size="11">Unanswered: 52.38%</text>
<text transform="matrix(1 0 0 1 153.2703 450.4797)" font-family="'Verdana'" font-size="11">Germany: 31.22%</text>
<text transform="matrix(1 0 0 1 224.1501 218.4797)" font-family="'Verdana'" font-size="11">UK: 4.76%</text>
<text transform="matrix(1 0 0 1 215.3201 179.4797)" font-family="'Verdana'" font-size="11">Netherlands: 3.70%</text>
<text transform="matrix(1 0 0 1 233.6101 159.4797)" font-family="'Verdana'" font-size="11">Czech Republic: 2.12%</text>
<text transform="matrix(1 0 0 1 324.2502 139.4797)" font-family="'Verdana'" font-size="11">US: 1.59%</text>
<text transform="matrix(1 0 0 1 316.1003 119.4797)" font-family="'Verdana'" font-size="11">Norway: 1.06%</text>
<text transform="matrix(1 0 0 1 303.4802 99.4797)" font-family="'Verdana'" font-size="11">Switzerland: 0.53%</text>
<text transform="matrix(1 0 0 1 347.7502 79.4797)" font-family="'Verdana'" font-size="11">India: 0.53%</text>
<text transform="matrix(1 0 0 1 346.0701 60.4797)" font-family="'Verdana'" font-size="11">Poland: 0.53%</text>
<text transform="matrix(1 0 0 1 460.5002 98.4797)" font-family="'Verdana'" font-size="11">Greece: 0.53%</text>
<text transform="matrix(1 0 0 1 467.4998 119.4797)" font-family="'Verdana'" font-size="11">Spain: 0.53%</text>
<text transform="matrix(1 0 0 1 474.4998 139.4797)" font-family="'Verdana'" font-size="11">New Zealand: 0.53%</text>
</svg>
