<?xml version="1.0" encoding="utf-8"?>
<!-- Generator: Adobe Illustrator 15.1.0, SVG Export Plug-In . SVG Version: 6.00 Build 0)  -->
<!DOCTYPE svg PUBLIC "-//W3C//DTD SVG 1.1//EN" "http://www.w3.org/Graphics/SVG/1.1/DTD/svg11.dtd">
<svg version="1.1" id="Ebene_1" xmlns="http://www.w3.org/2000/svg" xmlns:xlink="http://www.w3.org/1999/xlink" x="0px" y="0px"
	 width="645.526px" height="329.02px" viewBox="134.13 173.981 645.526 329.02"
	 enable-background="new 134.13 173.981 645.526 329.02" xml:space="preserve">
<desc>Created with Fabric.js 1.7.19</desc>
<path fill="#CD82AD" stroke="#FFFFFF" stroke-width="2" stroke-miterlimit="10" d="M466,350l-35.236-147.859
	C442.307,199.39,454.134,198,466,198V350z"/>
<path fill="none" stroke="#000000" stroke-miterlimit="10" stroke-opacity="0.3" d="M448.5,199.5l-2-23h-8"/>
<path fill="#CC4748" stroke="#FFFFFF" stroke-width="2" stroke-miterlimit="10" d="M466,350l-94.201-119.29
	c17.344-13.696,37.467-23.446,58.965-28.569L466,350z"/>
<path fill="none" stroke="#000000" stroke-miterlimit="10" stroke-opacity="0.3" d="M400.5,213.5l-9-18h-8"/>
<path fill="#84B761" stroke="#FFFFFF" stroke-width="2" stroke-miterlimit="10" d="M466,350l-145.175-45.034
	c9.099-29.333,26.87-55.222,50.974-74.256L466,350z"/>
<path fill="none" stroke="#000000" stroke-miterlimit="10" stroke-opacity="0.3" d="M340.5,264.5l-16-11h-8"/>
<path fill="#FDD400" stroke="#FFFFFF" stroke-width="2" stroke-miterlimit="10" d="M466,350l-90.163,122.37
	c-52.111-38.396-74.189-105.581-55.012-167.404L466,350z"/>
<path fill="none" stroke="#000000" stroke-miterlimit="10" stroke-opacity="0.3" d="M321.5,398.5l-19,6h-8"/>
<path fill="#67B7DC" stroke="#FFFFFF" stroke-width="2" stroke-miterlimit="10" d="M466,350V198c83.947,0,152,68.053,152,152
	s-68.053,152-152,152c-32.446,0-64.041-10.383-90.163-29.63L466,350z"/>
<path fill="none" stroke="#000000" stroke-miterlimit="10" stroke-opacity="0.3" d="M611.5,398.5l19,6h8"/>
<text transform="matrix(1 0 0 1 642.4998 411.4797)" font-family="'Verdana'" font-size="11">Regular Tickets: 60.11%</text>
<text transform="matrix(1 0 0 1 134.1301 412.1995)" font-family="'Verdana'" font-size="11">Diversity Supporter Tickets:</text>
<text transform="matrix(1 0 0 1 245.6902 424.1897)" font-family="'Verdana'" font-size="11">19.68%</text>
<text transform="matrix(1 0 0 1 172.8801 260.4797)" font-family="'Verdana'" font-size="11">Speakers &amp; Staff: 9.57%</text>
<text transform="matrix(1 0 0 1 205.6404 203.1995)" font-family="'Verdana'" font-size="11">Diversity / Scholarship Tickets:</text>
<text transform="matrix(1 0 0 1 341.6804 215.1897)" font-family="'Verdana'" font-size="11">6.91%</text>
<text transform="matrix(1 0 0 1 336.9802 183.4797)" font-family="'Verdana'" font-size="11">Sponsors: 3.72%</text>
</svg>
